<svg xmlns="http://www.w3.org/2000/svg" viewBox="0 0 394.38 257.81"><defs><style>.a,.b,.c{fill:#012d36;}.a,.c{stroke:#012d36;}.a{stroke-linecap:round;stroke-linejoin:round;stroke-width:0.25px;}.c{stroke-miterlimit:10;stroke-width:2px;}</style></defs><polygon class="a" points="152.94 113.96 152.91 197.6 152.91 202.84 141.94 196.84 141.94 97.76 152.94 97.76 197.34 151.96 240.74 97.76 253.74 97.76 197.54 168.16 152.94 113.96"/><polygon class="a" points="205.12 177.26 211.71 185.56 242.68 146.97 242.73 202.26 253.74 195.87 253.74 133.02 281.94 97.76 268.94 97.76 205.12 177.26"/><path class="a" d="M152.91,197.6l0,11.22c-1.62-.77-3.22-1.59-4.79-2.44a104.21,104.21,0,1,1,98.87.26c-1.41.75-2.84,1.48-4.29,2.17V197.59a94.21,94.21,0,1,0-89.82,0"/><polygon class="b" points="14.8 225.21 14.8 245.65 12.34 245.65 12.34 221.41 14.8 221.41 24.72 234.14 34.41 221.41 37.31 221.41 24.76 237.94 14.8 225.21"/><path class="b" d="M15.8,246.65H11.34V220.41h3.95l9.42,12.09,9.2-12.09h5.42L24.77,239.58l-9-11.47Zm-2.46-2h.46V222.41h-.46Zm.54-22.24L24.75,236.3,35.3,222.41h-.4L24.73,235.78,14.31,222.41Z"/><polygon class="c" points="35.91 232.52 35.91 245.65 38.23 245.65 38.23 229.63 35.91 232.52"/><polygon class="c" points="54.47 243.21 54.47 223.85 71.63 223.85 71.63 221.41 51.97 221.41 51.97 245.65 71.81 245.65 71.81 243.21 54.47 243.21"/><rect class="c" x="60.2" y="232.07" width="8.75" height="2.35"/><polygon class="c" points="84.97 232.52 84.97 245.65 82.65 245.65 82.65 229.63 84.97 232.52"/><polygon class="c" points="103.28 242.21 86.78 221.65 83.81 221.65 103.06 245.65 105.68 245.65 105.68 221.65 103.28 221.65 103.28 242.21"/><polygon class="c" points="121.65 232.52 121.65 245.65 119.33 245.65 119.33 229.63 121.65 232.52"/><polygon class="c" points="139.96 242.21 123.46 221.65 120.49 221.65 139.74 245.65 142.36 245.65 142.36 221.65 139.96 221.65 139.96 242.21"/><polygon class="c" points="159.23 243.33 159.23 223.97 176.39 223.97 176.39 221.53 156.73 221.53 156.73 245.77 176.57 245.77 176.57 243.33 159.23 243.33"/><rect class="c" x="164.91" y="232.19" width="8.8" height="2.35"/><polygon class="c" points="189.49 232.52 189.49 245.65 187.17 245.65 187.17 229.63 189.49 232.52"/><polygon class="c" points="207.8 242.21 191.3 221.65 188.33 221.65 207.58 245.65 210.2 245.65 210.2 221.65 207.8 221.65 207.8 242.21"/><path class="c" d="M242.25,227.36h2.52a6.08,6.08,0,0,0-6.2-5.83h-8.35a5.72,5.72,0,0,0-4.41,1.87,5.84,5.84,0,0,0-1.79,4.51,6,6,0,0,0,1.79,4.54,5.59,5.59,0,0,0,4.41,1.85h8.22a4.12,4.12,0,0,1,3.14,1.3,5.23,5.23,0,0,1,1.13,3.05,4.84,4.84,0,0,1-1.17,3.1,3.91,3.91,0,0,1-3.1,1.25h-8.22a5,5,0,0,1-3.19-1,4.86,4.86,0,0,1-1.28-2.8h-2.33a6.6,6.6,0,0,0,2.07,4.7,6.44,6.44,0,0,0,4.32,1.55h8.86a6.61,6.61,0,0,0,6.56-6.76,6.53,6.53,0,0,0-6.56-6.71s-6.77,0-8.18,0a3.56,3.56,0,0,1-3.05-1.1,4.84,4.84,0,0,1-.89-3,3.72,3.72,0,0,1,3.94-3.94c3-.05,7.15,0,7.9,0a3.46,3.46,0,0,1,2.94.91,2.68,2.68,0,0,1,.92,2.15Z"/><rect class="c" x="252.7" y="241.33" width="4.1" height="4.1"/><rect class="c" x="263.04" y="221.65" width="22.65" height="2.4"/><rect class="c" x="273.09" y="229.63" width="2.54" height="15.79"/><polygon class="c" points="296.65 243.15 296.65 223.8 313.81 223.8 313.81 221.35 294.15 221.35 294.15 245.59 313.99 245.59 313.99 243.15 296.65 243.15"/><rect class="c" x="302.33" y="232.02" width="8.8" height="2.35"/><path class="c" d="M345.17,221.65H326.86a3.11,3.11,0,0,0-1.79.74,3.17,3.17,0,0,0-.74,1.81V243a2.44,2.44,0,0,0,.74,1.81,2.4,2.4,0,0,0,1.79.74h18.95v-2.41H326.86V224.06h18.31Z"/><rect class="c" x="358.33" y="221.65" width="2.56" height="23.95"/><polygon class="c" points="366.59 232.14 379.78 232.14 379.78 221.65 382.07 221.65 382.07 245.59 379.78 245.59 379.78 234.5 366.59 234.5 366.59 232.14"/></svg>