<?xml version="1.0" encoding="UTF-8"?>
<!-- Xbox Controller - Based on xbox-controller-icon-1.svg with refined interactive overlays -->
<svg xmlns="http://www.w3.org/2000/svg" viewBox="0 0 767.09 515.34" class="controller-svg" id="svg-xac">
  <defs>
    <style>
      .body-fill{fill:#1a1a1a;}
      .c{fill:#ccc;}
      .d{fill:#0066cc;}
      .e{fill:#f7931e;}
      .f{fill:#ed1c24;}
      .g{fill:#00a651;}
      .a{fill:#fff;}
      .b{fill:#00a651;}
      .btn-region{cursor:pointer;transition:all 0.2s ease;}
      .btn-region:hover{filter:brightness(1.5);opacity:0.8;}
    </style>
  </defs>
  
  <!-- Controller Body (from original xbox-controller-icon-1.svg) -->
  <g transform="translate(-576.77 -267.62)">
    <!-- Main body -->
    <path class="body-fill" d="M576.89,666.35c-.67-40,9.61-77.88,22.25-115.23,21.69-64.08,44-127.94,65.87-192,3.32-9.73,9.52-16.23,18.73-19.9C719.59,325,755.89,312.12,794,304.87c11.18-2.13,20,.86,27.34,9.45,15.79,18.44,32.07,36.46,47.53,55.17,9.29,11.24,19.82,16.68,35,16.32q56.7-1.35,113.46,0c14.59.32,24.75-5,33.67-15.77,14.52-17.5,30.06-34.16,44.35-51.83,9.61-11.89,20.55-16.09,35.6-12.7,36.24,8.15,71.28,19.91,105.66,33.76,9.51,3.83,15.57,10.68,18.94,20.67,24.32,72.08,49.35,143.92,73.26,216.14,11.31,34.15,17,69.47,14.58,105.67-3,46-24.75,78.93-67.52,97.54-9.1,4-16.08,3.07-23.39-4q-46.32-44.71-93.34-88.71a256.58,256.58,0,0,0-31-24.85c-12.31-8.32-26.57-11.39-41.52-11.37q-126.12.1-252.25,0c-25.07-.06-45.6,10.09-63.27,26.74-32.54,30.67-64.43,62-97.21,92.44-17.38,16.12-14.07,17.73-39.09,5-37.15-18.91-55.17-51-57.84-92C576.59,677.1,576.89,671.72,576.89,666.35Z"/>
    
    <!-- D-pad cross -->
    <path class="c" d="M846.66,563.61v13.06c0,23.61,0,23.61,23.88,23.09,8.94-.19,11.71-3,11.82-12.09.09-7.82,0-15.64,0-24h21c13.18,0,15.2-2.11,14.67-15-.13-3.06,0-6.13-.08-9.19-.35-8.92-2.78-11.34-11.58-11.42-7.77-.07-15.55,0-24,0,0-9.29,0-17.39,0-25.49,0-6.88-3.43-10.38-10.35-10.41-4.31,0-8.62.12-12.91-.13-8.29-.47-12.29,3.07-12.42,11.58-.11,7.84,0,15.68,0,24.44-8.64,0-16.47-.08-24.29,0-8.52.1-10.81,2.39-11,11-.12,4.85.09,9.7,0,14.55-.15,7.09,3.29,10.25,10.3,10.12C829.73,563.5,837.83,563.61,846.66,563.61Z"/>
    
    <!-- Left stick base -->
    <path class="c" d="M709.52,423.07a59.28,59.28,0,0,1,59.24-59.57c33.3-.14,59.73,26.31,59.76,59.81a59.5,59.5,0,1,1-119-.24Zm17-.71A41.83,41.83,0,1,0,768.88,381,41.7,41.7,0,0,0,726.53,422.36Z"/>
    
    <!-- Right stick base -->
    <path class="c" d="M1114.89,547.32a59.08,59.08,0,0,1-59.52,58.38c-30.78-.36-59.39-23.39-59.26-60.43.12-30.43,24.09-59.26,59.84-59.07C1089.65,486.37,1115.17,512.83,1114.89,547.32Zm-17-.21c-.28-25.91-19.24-45.07-45-43.31-21.18,1.45-39.45,18.56-39,43.05.41,22.85,19.5,41.25,42.67,41C1079,587.6,1098.16,568.7,1097.93,547.11Z"/>
    
    <!-- X Button (blue) -->
    <path class="d" d="M1112.49,447a23.84,23.84,0,0,1-.17-47.68,23.84,23.84,0,0,1,.17,47.68Z"/>
    <!-- Y Button (yellow) -->
    <path class="e" d="M1139.41,371.89a23.78,23.78,0,1,1,23.32,24.26A23.7,23.7,0,0,1,1139.41,371.89Z"/>
    <!-- B Button (red) -->
    <path class="f" d="M1213.66,447a23.83,23.83,0,1,1,24.06-23.55A23.7,23.7,0,0,1,1213.66,447Z"/>
    <!-- A Button (green) -->
    <path class="g" d="M1139.39,473.82a23.78,23.78,0,1,1,47.56.4c-.08,12.56-11.47,23.74-24,23.61A23.68,23.68,0,0,1,1139.39,473.82Z"/>
    
    <!-- Stick inner rings -->
    <path d="M726.53,422.36A41.83,41.83,0,1,1,767.46,465,41.9,41.9,0,0,1,726.53,422.36Zm41.56,30.52a29.87,29.87,0,1,0,.16-59.74,29.87,29.87,0,0,0-.16,59.74Z"/>
    <path d="M768.09,452.88a29.87,29.87,0,1,1,30.1-29.35A29.78,29.78,0,0,1,768.09,452.88Z"/>
    <path d="M1097.93,547.11c.23,21.59-18.92,40.49-41.29,40.73-23.17.26-42.26-18.14-42.67-41-.44-24.49,17.83-41.6,39-43.05C1078.69,502,1097.65,521.2,1097.93,547.11Zm-41.71,28.62a29.88,29.88,0,0,0,29.65-30.52c-.28-15.4-14.16-28.91-29.67-28.89-17.3,0-30.1,12.94-29.74,30C1026.81,563.13,1039.7,575.86,1056.22,575.73Z"/>
    <path d="M1056.22,575.73c-16.52.13-29.41-12.6-29.76-29.39-.36-17.08,12.44-30,29.74-30,15.51,0,29.39,13.49,29.67,28.89A29.88,29.88,0,0,1,1056.22,575.73Z"/>
    
    <!-- Top bar with bumpers -->
    <path d="M693.32,322.36c2.26-12.79,7.38-21.52,18.94-26.89a312,312,0,0,1,99.92-27.76c5-.52,10.48,1.24,15.47,2.8a31.84,31.84,0,0,1,10.74,5.77c13.84,11.57,29.78,13,47.15,12.74,56.23-.74,112.47-.19,168.71-.45,4.5,0,10-1.21,13.34-3.91,20.31-16.29,42.18-19.88,67.44-13.32,25.54,6.62,50.88,13.29,74.52,25.22,11.56,5.83,15,11.16,16.76,25-22.29-7.12-44.47-14.59-66.9-21.21-11.22-3.31-22.87-5.24-34.39-7.47-13.55-2.62-24.68,2.1-33.58,12.26-16.16,18.46-32.58,36.71-48.12,55.68-7.63,9.3-15.94,13.25-28.2,13-37.56-.74-75.14-.51-112.71,0-9.89.13-16.93-3-23.18-10.47-15.1-18-31.14-35.26-45.91-53.53-12.58-15.55-27.87-21.11-46.83-15.66-28.68,8.25-57.22,17-85.82,25.58C698.48,320.43,696.35,321.29,693.32,322.36Zm296.44,9a29.68,29.68,0,0,0-59.31-2.29,29.89,29.89,0,0,0,28.9,31.26C975.48,360.89,989.23,347.79,989.76,331.38Z"/>
    
    <!-- Xbox logo -->
    <circle class="a" cx="960" cy="331" r="33"/>
    <path class="b" d="M985.1,291H935.9A10.93,10.93,0,0,0,925,301.9v49.2A10.93,10.93,0,0,0,935.9,362h49.2A10.93,10.93,0,0,0,996,351.1V301.9A10.93,10.93,0,0,0,985.1,291Zm-24.42,11.17a27.2,27.2,0,0,1,14.83,4.38,29.27,29.27,0,0,0-14.62,5.71s-7.12-5.93-14.94-5.78A27.2,27.2,0,0,1,960.68,302.17ZM933.14,330a27.91,27.91,0,0,1,8.48-20.11c1.54.31,6.9,1.76,12.26,7.82,0,0-12.75,10.85-15.88,28.08A27.88,27.88,0,0,1,933.14,330Zm27.54,27.84a27.36,27.36,0,0,1-21-9.88c.62-2.24,3.92-9.78,21.25-24.38,0,0,18.6,15.49,20.52,24.74A27.32,27.32,0,0,1,960.68,357.86Zm23-12.59c-.7-4-3.7-15.57-16-27.23,0,0,4.76-6,12-8.18a28.09,28.09,0,0,1,4,35.41Z"/>
  </g>
  
  <!-- INTERACTIVE BUTTON OVERLAYS - positioned to match controller graphics -->

  <!-- Face Buttons (ABXY) -->
  <circle data-btn-id="btn-a" class="btn-region" cx="586" cy="206" r="22" fill="rgba(0,166,81,0.4)"/>
  <text x="586" y="212" text-anchor="middle" fill="white" font-size="14" font-weight="bold" font-family="Arial" pointer-events="none">A</text>
  
  <circle data-btn-id="btn-b" class="btn-region" cx="636" cy="179" r="22" fill="rgba(237,28,36,0.4)"/>
  <text x="636" y="185" text-anchor="middle" fill="white" font-size="14" font-weight="bold" font-family="Arial" pointer-events="none">B</text>
  
  <circle data-btn-id="btn-x" class="btn-region" cx="535" cy="179" r="22" fill="rgba(0,102,204,0.4)"/>
  <text x="535" y="185" text-anchor="middle" fill="white" font-size="14" font-weight="bold" font-family="Arial" pointer-events="none">X</text>
  
  <circle data-btn-id="btn-y" class="btn-region" cx="586" cy="104" r="22" fill="rgba(247,147,30,0.4)"/>
  <text x="586" y="110" text-anchor="middle" fill="#333" font-size="14" font-weight="bold" font-family="Arial" pointer-events="none">Y</text>

  <!-- Left Stick -->
  <circle data-btn-id="stick-left-x" class="btn-region" cx="191" cy="155" r="42" fill="rgba(200,200,200,0.15)" stroke="rgba(255,255,255,0.3)" stroke-width="2"/>
  <text x="191" y="160" text-anchor="middle" fill="#999" font-size="11" font-family="Arial" pointer-events="none">LS</text>

  <!-- Right Stick -->
  <circle data-btn-id="stick-right-x" class="btn-region" cx="479" cy="280" r="42" fill="rgba(200,200,200,0.15)" stroke="rgba(255,255,255,0.3)" stroke-width="2"/>
  <text x="479" y="285" text-anchor="middle" fill="#999" font-size="11" font-family="Arial" pointer-events="none">RS</text>

  <!-- D-Pad -->
  <rect data-btn-id="dpad-up" class="btn-region" x="258" y="262" width="24" height="26" fill="rgba(180,180,180,0.25)" rx="2"/>
  <rect data-btn-id="dpad-down" class="btn-region" x="258" y="312" width="24" height="26" fill="rgba(180,180,180,0.25)" rx="2"/>
  <rect data-btn-id="dpad-left" class="btn-region" x="232" y="288" width="26" height="24" fill="rgba(180,180,180,0.25)" rx="2"/>
  <rect data-btn-id="dpad-right" class="btn-region" x="282" y="288" width="26" height="24" fill="rgba(180,180,180,0.25)" rx="2"/>

  <!-- Bumpers (LB/RB) - curved to match controller shape -->
  <path data-btn-id="btn-lb" class="btn-region" d="M 117 52 Q 145 42 180 42 Q 210 45 220 55 L 215 68 Q 180 58 130 62 Z" fill="rgba(120,120,120,0.35)"/>
  <text x="168" y="56" text-anchor="middle" fill="#ddd" font-size="11" font-weight="bold" font-family="Arial" pointer-events="none">LB</text>
  
  <path data-btn-id="btn-rb" class="btn-region" d="M 650 52 Q 622 42 587 42 Q 557 45 547 55 L 552 68 Q 587 58 637 62 Z" fill="rgba(120,120,120,0.35)"/>
  <text x="600" y="56" text-anchor="middle" fill="#ddd" font-size="11" font-weight="bold" font-family="Arial" pointer-events="none">RB</text>

  <!-- Triggers (LT/RT) - curved -->
  <path data-btn-id="btn-lt" class="btn-region" d="M 125 38 Q 155 28 185 30 Q 210 32 215 42 L 205 52 Q 175 45 140 48 Z" fill="rgba(100,100,100,0.35)"/>
  <text x="170" y="42" text-anchor="middle" fill="#ddd" font-size="10" font-weight="bold" font-family="Arial" pointer-events="none">LT</text>
  
  <path data-btn-id="btn-rt" class="btn-region" d="M 642 38 Q 612 28 582 30 Q 557 32 552 42 L 562 52 Q 592 45 627 48 Z" fill="rgba(100,100,100,0.35)"/>
  <text x="597" y="42" text-anchor="middle" fill="#ddd" font-size="10" font-weight="bold" font-family="Arial" pointer-events="none">RT</text>

  <!-- Menu Buttons (View/Menu) -->
  <circle data-btn-id="btn-back" class="btn-region" cx="320" cy="142" r="10" fill="rgba(150,150,150,0.3)" stroke="rgba(255,255,255,0.2)" stroke-width="1"/>
  <circle data-btn-id="btn-start" class="btn-region" cx="447" cy="142" r="10" fill="rgba(150,150,150,0.3)" stroke="rgba(255,255,255,0.2)" stroke-width="1"/>

  <!-- Xbox/Home Button -->
  <circle data-btn-id="btn-home" class="btn-region" cx="384" cy="63" r="26" fill="rgba(0,166,81,0.25)" stroke="rgba(255,255,255,0.3)" stroke-width="1"/>
</svg>
