<?xml version="1.0" encoding="UTF-8"?>
<svg xmlns="http://www.w3.org/2000/svg" id="svg710" fill="none" viewBox="0 0 1090 707" aria-hidden="true">
  <title>Stadia controller (Joypad-export)</title>
  <g id="g312" stroke-miterlimit="10" transform="translate(-94 -404)">
    <path id="L" stroke="#3E3E5C" stroke-width="2.5" d="M425.78 430.51v-12.073c0-4.16-3.165-7.602-7.322-7.771-23.927-.971-101.05-1.145-149.61 33.048-2.048 1.443-3.21 3.816-3.21 6.322v23.23" fill="#ffffff"/>
    <path id="R" stroke="#3E3E5C" stroke-width="2.5" d="M854.89 430.51v-12.073c0-4.16 3.165-7.602 7.322-7.771 23.928-.971 101.05-1.145 149.61 33.048 2.05 1.443 3.21 3.816 3.21 6.322v23.23" fill="#ffffff"/>
    <path id="body" fill="white" stroke="#3E3E5C" stroke-width="2.5" d="M1178.4 975.76c-20.37-154.68-63.44-322.57-101.82-422.84-37.59-101.05-137.05-121.26-230.25-121.26H433.59c-93.199 0-192.66 20.209-230.26 121.26-37.592 101.05-80.668 268.16-101.81 422.84-11.747 76.952 44.642 123.59 94.765 129.03 50.124 5.44 110.43-13.22 140.19-89.39 29.761-75.396 42.292-139.91 104.95-139.91h396.29c62.654 0 75.185 64.514 104.95 139.91 29.761 75.4 90.071 94.83 140.19 89.39s107.3-52.08 95.55-129.03z"/>
    <path id="dpad" fill="#ffffff" stroke="#3E3E5C" stroke-width="2.5" d="M405.61 582.85h-31.218a4 4 0 0 1-4-4v-31.218c0-14.869-12.522-27.391-27.392-27.391s-27.391 12.522-27.391 27.391v31.218a4 4 0 0 1-4 4h-31.218c-14.87 0-27.392 12.521-27.392 27.391s12.522 27.391 27.392 27.391h31.218a4 4 0 0 1 4 4v31.218c0 14.869 12.522 27.391 27.391 27.391 14.87 0 27.392-12.522 27.392-27.391v-31.218a4 4 0 0 1 4-4h31.218c14.87 0 27.392-12.522 27.392-27.391 0-14.87-11.74-27.391-27.392-27.391z"/>
    <path id="dpad-up" fill="none" d="M315.609 582.85h54.782v-35.218c0-14.869-12.522-27.391-27.391-27.391s-27.391 12.522-27.391 27.391z"/>
    <path id="dpad-down" fill="none" d="M315.609 637.632h54.782v35.218c0 14.869-12.522 27.391-27.391 27.391s-27.391-12.522-27.391-27.391z"/>
    <path id="dpad-left" fill="none" d="M315.609 582.85v54.782h-35.218c-14.869 0-27.391-12.522-27.391-27.391s12.522-27.391 27.391-27.391z"/>
    <path id="dpad-right" fill="none" d="M370.391 582.85v54.782h35.218c14.869 0 27.391-12.522 27.391-27.391s-12.522-27.391-27.391-27.391z"/>
    <g transform="translate(480, 765) scale(1.2) translate(-480, -765)">
      <path id="leftcircle" fill="none" stroke="#3E3E5C" stroke-width="1" d="M480.45 829.4c35.347 0 64.001-28.654 64.001-64s-28.654-64-64.001-64c-35.346 0-64 28.654-64 64s28.654 64 64 64z"/>
      <path id="leftstick" fill="#ffffff" stroke="#3E3E5C" stroke-width="2.5" d="M480 813.4c26.51 0 48.001-21.49 48.001-48s-21.491-48-48.001-48-48.001 21.49-48.001 48 21.491 48 48.001 48z" transform="translate(0, 0)"/>
    </g>
    <path id="stadiabutton" fill="#ffffff" stroke="#3E3E5C" stroke-width="2.5" d="M640 801.4c19.882 0 36-16.118 36-36s-16.118-36-36-36-36 16.118-36 36 16.118 36 36 36z"/>
    <g transform="translate(800, 765) scale(1.2) translate(-800, -765)">
      <path id="rightcircle" fill="none" stroke="#3E3E5C" stroke-width="1" d="M800 829.4c35.346 0 64-28.653 64-63.999s-28.654-63.999-64-63.999-64 28.653-64 63.999 28.654 63.999 64 63.999z"/>
      <path id="rightstick" fill="#ffffff" stroke="#3E3E5C" stroke-width="2.5" d="M800.47 813.89c26.51 0 48-21.49 48-47.999s-21.49-47.999-48-47.999-48 21.49-48 47.999 21.49 47.999 48 47.999z" transform="translate(0, 0)"/>
    </g>
    <path id="optionsbutton" fill="#ffffff" stroke="#3E3E5C" stroke-width="2.5" d="M532.4 552.58c10.747 0 19.6-9.12 19.6-20s-8.853-20-19.6-20h-28.8c-10.747 0-19.6 9.12-19.6 20s8.853 20 19.6 20z"/>
    <path id="assistantbutton" fill="#ffffff" stroke="#3E3E5C" stroke-width="2.5" d="M564 635.43c13.255 0 24-10.745 24-24s-10.745-24-24-24-24 10.745-24 24 10.745 24 24 24z"/>
    <path id="capturebutton" fill="#ffffff" stroke="#3E3E5C" stroke-width="2.5" d="M715.37 635.43c13.255 0 24-10.746 24-24 0-13.255-10.745-24-24-24s-24 10.745-24 24c0 13.254 10.745 24 24 24z"/>
    <path id="menubutton" fill="#ffffff" stroke="#3E3E5C" stroke-width="2.5" d="M776.28 552.58c10.747 0 19.6-9.12 19.6-20s-8.853-20-19.6-20h-28.8c-10.747 0-19.6 9.12-19.6 20s8.853 20 19.6 20z"/>
    <path id="Abutton" fill="#ffffff" stroke="#3E3E5C" stroke-width="2.5" d="M946.75 711.4c18.778 0 34-15.222 34-34s-15.222-34-34-34-34 15.222-34 34 15.222 34 34 34z"/>
    <path id="Xbutton" fill="#ffffff" stroke="#3E3E5C" stroke-width="2.5" d="M879 643.32c18.778 0 34-15.222 34-34s-15.222-34-34-34-34 15.223-34 34 15.222 34 34 34z"/>
    <path id="Ybutton" fill="#ffffff" stroke="#3E3E5C" stroke-width="2.5" d="M946.75 575.4c18.778 0 34-15.222 34-34s-15.222-34-34-34-34 15.222-34 34 15.222 34 34 34z"/>
    <path id="Bbutton" fill="#ffffff" stroke="#3E3E5C" stroke-width="2.5" d="M1015 643.32c18.78 0 34-15.222 34-34s-15.22-34-34-34c-18.778 0-34 15.222-34 34s15.222 34 34 34z"/>
  </g>
</svg>
