<?xml version="1.0" encoding="UTF-8"?>
<svg xmlns="http://www.w3.org/2000/svg" id="controller_switch_pro" viewBox="0 0 1728 1206" aria-hidden="true">
  <title>Switch Pro controller (TechRemap skin)</title>
  <defs>
    <radialGradient id="sw-body" cx="50%" cy="32%" r="65%">
      <stop offset="0%" stop-color="#32324a"/>
      <stop offset="55%" stop-color="#26263a"/>
      <stop offset="100%" stop-color="#1a1a28"/>
    </radialGradient>
  </defs>
  <path id="body" d="M1722.256 976.324a324 324 0 0 0-2.44-40.45q-3.27-26.61-8.06-53.23c-53.82-362.57-118-683.66-169-728a145.6 145.6 0 0 1-35.6-18.2c-43.07-43.91-147.53-67.61-260.35-80.32l-5.36-.59-.63-.07c-40.61-4.44-82.18-7.47-122.27-9.53l-2.29-.11h-.87c-119.32-6-224.74-3.51-251.08-3.87h-.56c-26.34.36-131.77-2.14-251.08 3.87h-.87l-2.3.11c-40.08 2.06-81.65 5.09-122.27 9.53l-.62.07-5.36.59c-112.82 12.71-217.28 36.41-260.35 80.32a145.6 145.6 0 0 1-35.64 18.17c-52.36 45.54-118.58 382.55-173.24 756.74q-2.3 12.12-3.84 24.52a326 326 0 0 0-2.43 40.46 308.9 308.9 0 0 0 12.54 89.17c11.86 40.14 33.39 82.87 72.42 106.6 0 0 35.41 24.13 81.28 24.25 34.35.24 74.66-12.93 110.36-59.85l117.48-227.89s29.67-64.09 102.07-64.09h724.16c72.4 0 102.07 64.09 102.07 64.09l117.49 227.87c35.7 46.92 76 60.09 110.36 59.85 45.87-.12 81.28-24.25 81.28-24.25 39-23.73 60.56-66.46 72.42-106.6a308.9 308.9 0 0 0 12.58-89.16z" fill="url(#sw-body)" stroke="#3E3E5C" stroke-width="4"/>
  <g id="detail_switch1" transform="translate(.36)">
    <path id="detail_switch1_r" d="M1624.6 392.298s-217.192 347.959-342.482 467.959" fill="none" stroke="#3E3E5C" stroke-opacity="0.7" stroke-width="2"/>
    <path id="detail_switch1_l" d="M103.819 388.698s217.966 349.76 343.226 469.76" fill="none" stroke="#3E3E5C" stroke-opacity="0.7" stroke-width="2"/>
  </g>
  <path id="button_l1" d="M220.846 136.384c43.07-43.91 147.53-67.61 260.35-80.32l5.36-.59.62-.07c39.26-4.29 79.4-7.26 118.24-9.31-30.16-9.51-70.16-33.27-70.16-33.27-6.525-2.243-13.195-2.635-20-3.16-210.46-1.59-285.89 86-285.89 86l-28.81 52.62a133 133 0 0 0 20.29-11.9z" fill="#ffffff" stroke="#3E3E5C" stroke-width="4"/>
  <path id="button_r1" d="m1240.766 55.434.63.07 5.36.59c112.82 12.71 217.28 36.41 260.35 80.32a135 135 0 0 0 22.22 12.74l-29.3-53.49s-75.43-87.56-285.89-86c-6.938-.163-13.365 1.457-20 3.16 0 0-40.23 23.87-70.39 33.34 38.44 2.08 78.16 5.02 117.02 9.27z" fill="#ffffff" stroke="#3E3E5C" stroke-width="4"/>
  <g id="stick_l" transform="translate(0.313725, -0.941176)">
    <circle cx="394.636" cy="366.414" r="99.91" fill="#ffffff" stroke="#3E3E5C" stroke-width="4"/>
    <circle id="button_l3" cx="394.636" cy="366.414" r="70.64" fill="#ffffff" fill-opacity="0.5" stroke="#3E3E5C" stroke-width="4"/>
  </g>
  <g id="stick_r" transform="translate(0.627451, -0.313725)">
    <circle cx="1090.966" cy="597.614" r="99.91" fill="#ffffff" stroke="#3E3E5C" stroke-width="4"/>
    <circle id="button_r3" cx="1090.966" cy="597.614" r="70.64" fill="#ffffff" fill-opacity="0.5" stroke="#3E3E5C" stroke-width="4"/>
  </g>
  <circle id="button_s1" cx="653.336" cy="237.034" r="35.34" fill="#ffffff" stroke="#3E3E5C" stroke-width="4"/>
  <circle id="button_s2" cx="1076.636" cy="237.034" r="35.34" fill="#ffffff" stroke="#3E3E5C" stroke-width="4"/>
  <circle id="button_a1" cx="988.066" cy="366.414" r="35.34" fill="#ffffff" stroke="#3E3E5C" stroke-width="4"/>
  <rect id="button_a2" width="63.56" height="63.56" x="712.466" y="336.984" rx="7.91" fill="#ffffff" stroke="#3E3E5C" stroke-width="4"/>
  <circle id="button_b1" cx="1317.416" cy="482.084" r="60.13" fill="#ffffff" stroke="#3E3E5C" stroke-width="4"/>
  <circle id="button_b2" cx="1453.086" cy="366.414" r="60.13" fill="#ffffff" stroke="#3E3E5C" stroke-width="4"/>
  <circle id="button_b3" cx="1186.756" cy="366.414" r="60.13" fill="#ffffff" stroke="#3E3E5C" stroke-width="4"/>
  <circle id="button_b4" cx="1317.416" cy="250.744" r="60.13" fill="#ffffff" stroke="#3E3E5C" stroke-width="4"/>
  <path id="dpad_cross" d="M556.856 492.614v58.28a7.64 7.64 0 0 1-7.64 7.65h-58.29a16.88 16.88 0 0 0-16.88 16.88v53.54a16.88 16.88 0 0 0 16.88 16.88h58.33a7.64 7.64 0 0 1 7.64 7.65v58.28a16.88 16.88 0 0 0 16.88 16.88h53.48a16.88 16.88 0 0 0 16.88-16.88v-58.28a7.65 7.65 0 0 1 7.65-7.65h58.29a16.87 16.87 0 0 0 16.87-16.88v-53.54a16.87 16.87 0 0 0-16.87-16.88h-58.29a7.65 7.65 0 0 1-7.65-7.65v-58.28a16.88 16.88 0 0 0-16.88-16.9h-53.54a16.88 16.88 0 0 0-16.86 16.9z" fill="#ffffff" stroke="#3E3E5C" stroke-width="4"/>
  <path id="dpad_up" d="M560.01 493.364v57.826c.006 4.06-4.366 10.383-8.271 10.383 12.427.024 84.476.021 97.485 0-3.907 0-8.508-6.321-8.508-10.383v-57.826c.01-8.97-6.3-14.453-15.608-14.453H575.6c-8.62.01-15.6 5.49-15.59 14.453" fill="transparent" stroke="none"/>
  <path id="dpad_down" d="M640.953 711.05v-57.826c-.006-4.06 4.365-10.383 8.27-10.383-12.427-.024-84.476-.021-97.484 0 3.907 0 8.507 6.321 8.507 10.383v57.826c-.01 8.97 6.3 14.454 15.609 14.454h49.507c8.62-.011 15.6-5.491 15.59-14.454" fill="transparent" stroke="none"/>
  <path id="dpad_left" d="M491.501 642.888h57.826c4.06-.006 10.383 4.366 10.383 8.27.024-12.426.021-84.476 0-97.484 0 3.907-6.321 8.507-10.383 8.507H491.5c-8.97-.01-14.453 6.3-14.453 15.61v49.507c.01 8.62 5.49 15.6 14.453 15.59" fill="transparent" stroke="none"/>
  <path id="dpad_right" d="M709.666 561.945H651.84c-4.06.006-10.383-4.365-10.383-8.27-.024 12.427-.021 84.476 0 97.484 0-3.907 6.321-8.507 10.383-8.507h57.826c8.97.01 14.454-6.3 14.454-15.609v-49.508c-.011-8.62-5.491-15.6-14.454-15.59" fill="transparent" stroke="none"/>
</svg>
