<?xml version="1.0" encoding="UTF-8"?>
<svg xmlns="http://www.w3.org/2000/svg" id="controller_xbox_series" viewBox="0 0 1728.019 1202.233" version="1.1" aria-hidden="true">
  <title>Xbox Series controller (Joypad-export)</title>
  <path id="layout" fill="#ffffff" d="M 1477.4913,151.58339 C 1341.0014,22.223395 1126.1914,43.583395 1126.1914,43.583395 l -261.69988,-7.09 v 0 h -0.51 -0.5 v 0 l -261.65994,7.09 c 0,0 -214.80994,-21.36 -351.29991,107.999995 0,0 -265.379934,583.77001 -245.9999384,815.34001 0,0 -9.1299977,188.61 171.2599584,231.58 0,0 95.73997,-55.93 242.10994,-252.94 0,0 67.99998,-93.36 177.22995,-84.66 l 268.38994,0.79 h 1 l 268.38988,-0.79 c 109.18,-8.7 177.23,84.66 177.23,84.66 146.3699,197 242.1099,252.94 242.1099,252.94 180.39,-43 171.26,-231.58 171.26,-231.58 19.34,-231.57 -246.01,-815.34001 -246.01,-815.34001 z"/>
  <ellipse id="button_b1" cx="1306.2814" cy="446.05338" rx="57.759983" ry="57.759998" fill="#E8E8F0" stroke="#3E3E5C" stroke-width="2.5"/>
  <ellipse id="button_b2" cx="1421.1212" cy="331.52341" rx="57.759983" ry="57.759998" fill="#E8E8F0" stroke="#3E3E5C" stroke-width="2.5"/>
  <ellipse id="button_b3" cx="1191.4414" cy="331.21341" rx="57.759983" ry="57.759998" fill="#E8E8F0" stroke="#3E3E5C" stroke-width="2.5"/>
  <ellipse id="button_b4" cx="1306.2814" cy="216.37338" rx="57.759983" ry="57.759998" fill="#E8E8F0" stroke="#3E3E5C" stroke-width="2.5"/>
  <ellipse fill="#000000" cx="1091.3713" cy="594.00342" id="rstick_base" rx="63.819984" ry="63.82"/>
  <ellipse id="button_r3" cx="1091.3713" cy="594.00342" rx="94.86998" ry="94.870003" fill="#E8E8F0" stroke="#3E3E5C" stroke-width="2"/>
  <ellipse id="dpad_base" cx="631.90161" cy="612.4834" rx="140.01997" ry="140.02" fill="none" stroke="#3E3E5C" stroke-width="1.5"/>
  <path id="dpad_cross" fill="#E8E8F0" stroke="#3E3E5C" stroke-width="2" d="m 755.98154,574.79339 c 0,0 -3,-7.32 -12.84999,-7.91 h -64.99999 v -65 c -0.6,-9.89 -7.90999,-12.86 -7.90999,-12.86 -7.12,-4.15 -37,-4.15 -37,-4.15 0,0 -31.84999,0 -38.99999,4.15 0,0 -7.31999,3 -7.90999,12.86 v 65 H 521.3116 c -9.89,0.59 -12.85999,7.91 -12.85999,7.91 -4.15,7.12 -4.15,37 -4.15,37 0,0 0,31.85 4.15,39 0,0 2.99999,7.31001 12.85999,7.91001 h 64.99999 v 65 c 0.59,9.89 7.90999,12.85 7.90999,12.85 7.12,4.16 36.99999,4.16 36.99999,4.16 0,0 31.85,0 39,-4.16 0,0 7.30999,-3 7.90999,-12.85 v -65 h 64.99999 c 9.88999,-0.6 12.84999,-7.91001 12.84999,-7.91001 4.16,-7.12 4.16,-37 4.16,-37 0,0 0,-31.88 -4.16,-39 z"/>
  <path id="button_du" fill="transparent" stroke="transparent" stroke-width="6.64119" d="m 674.48243,570.5 v -66.68889 c 0.78754,-9.40214 -7.28176,-12.57408 -7.28176,-12.57408 -6.55453,-4.05773 -34.0614,-4.05773 -34.0614,-4.05773 0,0 -29.32041,0 -35.90254,4.05773 0,0 -8.34649,3.20128 -7.28177,12.57408 V 570.5 c 41.1942,0.21036 41.30812,0 84.52747,0 z"/>
  <path id="button_dd" fill="transparent" stroke="transparent" stroke-width="6.64119" d="m 589.91807,655.1486 v 66.68889 c -0.78754,9.40214 7.28176,12.57408 7.28176,12.57408 6.55453,4.05773 34.0614,4.05773 34.0614,4.05773 0,0 29.32041,0 35.90254,-4.05773 0,0 8.34649,-3.20128 7.28177,-12.57408 V 655.1486 c -41.1942,-0.21036 -41.30812,0 -84.52747,0 z"/>
  <path id="button_dl" fill="transparent" stroke="transparent" stroke-width="6.64119" d="m 588.62575,570.46481 h -66.68889 c -9.40214,-0.78754 -12.57408,7.28176 -12.57408,7.28176 -4.05773,6.55453 -4.05773,34.0614 -4.05773,34.0614 0,0 0,29.32041 4.05773,35.90254 0,0 3.20128,8.34649 12.57408,7.28177 h 66.68889 c 0.21036,-41.1942 0,-41.30812 0,-84.52747 z"/>
  <path id="button_dr" fill="transparent" stroke="transparent" stroke-width="6.64119" d="m 674.6777,655.02893 h 66.68889 c 9.40214,0.78754 12.57408,-7.28176 12.57408,-7.28176 4.05773,-6.55453 4.05773,-34.0614 4.05773,-34.0614 0,0 0,-29.32041 -4.05773,-35.90254 0,0 -3.20128,-8.34649 -12.57408,-7.28177 H 674.6777 c -0.21036,41.1942 0,41.30812 0,84.52747 z"/>
  <ellipse fill="#000000" cx="417.75165" cy="336.86337" id="lstick_base" rx="63.819984" ry="63.82"/>
  <ellipse id="button_s1" cx="737.40161" cy="329.15341" rx="40.029987" ry="40.029999" fill="#E8E8F0" stroke="#3E3E5C" stroke-width="2"/>
  <ellipse id="button_s2" cx="988.52155" cy="329.15341" rx="40.029987" ry="40.029999" fill="#E8E8F0" stroke="#3E3E5C" stroke-width="2"/>
  <ellipse id="button_l3" cx="417.3594931372549" cy="336.4712131372549" rx="94.86998" ry="94.870003" fill="#E8E8F0" stroke="#3E3E5C" stroke-width="2"/>
  <path id="button_l1" fill="#E8E8F0" stroke="#3E3E5C" stroke-width="2.5" d="m 258.49167,144.26339 c 0,0 43.31999,-137.5899955 276.99993,-140.7599955 0,0 17.40999,2.5 22.54999,6.6500005 0,0 30.3,30.18 49.06999,33.29 0.03,0 -209.38995,-22.69 -348.61991,100.819995 z"/>
  <path id="button_r1" fill="#E8E8F0" stroke="#3E3E5C" stroke-width="2.5" d="m 1468.7013,144.26339 c 0,0 -43.32,-137.5899955 -276.9999,-140.7599955 0,0 -17.4,2.5 -22.55,6.6500005 0,0 -30.29,30.18 -49.07,33.29 0.01,0 209.41,-22.69 348.6199,100.819995 z"/>
  <ellipse id="button_a1" cx="863.99158" cy="157.52341" rx="65.669983" ry="65.669998" fill="#E8E8F0" stroke="#3E3E5C" stroke-width="2.5"/>
  <path id="button_a2" fill="#E8E8F0" stroke="#3E3E5C" stroke-width="2" d="m 884.59151,400.86339 h -45.19999 a 24.919994,24.92 0 0 0 0,49.84 h 45.19999 a 24.919994,24.92 0 1 0 0,-49.84 z"/>
</svg>
